PathFileType	4	(X/Y/Z)	s01c0403.trc
DataRate	CameraRate	NumFrames	NumMarkers	Units	OrigDataRate	OrigDataStartFrame	OrigNumFrames
200	200	4	47	mm	200	1000	2000
Frame#	Time	racr			lacr			c7			jug			rlel			rdr			llel			ldr			lic			ric			lasi			rasi			rpsi			lpsi			rgt			lgt			rth1			rth2			rth3			rth4			rlfc			rsh1			rsh2			rsh3			rsh4			rlmal			rmmal			rcal			rtoe			rmt5			lth1			lth2			lth4			lth3			llfc			lsh1			lsh2			lsh3			lsh4			llmal			lmmal			lcal			ltoe			lmt5			SBIKE			LBIKE			RBIKE			
		X1	Y1	Z1	X2	Y2	Z2	X3	Y3	Z3	X4	Y4	Z4	X5	Y5	Z5	X6	Y6	Z6	X7	Y7	Z7	X8	Y8	Z8	X9	Y9	Z9	X10	Y10	Z10	X11	Y11	Z11	X12	Y12	Z12	X13	Y13	Z13	X14	Y14	Z14	X15	Y15	Z15	X16	Y16	Z16	X17	Y17	Z17	X18	Y18	Z18	X19	Y19	Z19	X20	Y20	Z20	X21	Y21	Z21	X22	Y22	Z22	X23	Y23	Z23	X24	Y24	Z24	X25	Y25	Z25	X26	Y26	Z26	X27	Y27	Z27	X28	Y28	Z28	X29	Y29	Z29	X30	Y30	Z30	X31	Y31	Z31	X32	Y32	Z32	X33	Y33	Z33	X34	Y34	Z34	X35	Y35	Z35	X36	Y36	Z36	X37	Y37	Z37	X38	Y38	Z38	X39	Y39	Z39	X40	Y40	Z40	X41	Y41	Z41	X42	Y42	Z42	X43	Y43	Z43	X44	Y44	Z44	X45	Y45	Z45	X46	Y46	Z46	X47	Y47	Z47	
1000	5.0000	691.029344	1331.200963	-143.105955	685.129986	1300.749949	-513.932683	665.721509	1425.094628	-329.180385	664.558713	1258.975661	-322.493458	569.429130	1091.700636	2.818419	704.876781	897.039527	-64.748068	530.448884	1052.803055	-601.775545	679.010435	895.712086	-482.539518	278.335308	1219.043104	-454.814382	321.568302	1194.245712	-124.791382	293.497375	1166.547736	-427.577976	336.489685	1146.386757	-152.252791	179.198194	1238.856051	-206.210085	162.833892	1245.525617	-308.680201	244.844655	1074.127870	-93.343109	245.608977	1095.148736	-472.120670	280.238149	958.537311	-76.567217	308.567341	879.930859	-77.558006	333.030478	793.459895	-84.554221	361.597457	896.126720	-88.078587	329.877138	674.887388	-101.532404	267.939289	578.286518	-66.717398	237.988854	498.956218	-68.222547	199.090463	419.101381	-76.728694	285.236042	479.084425	-100.304421	146.722132	313.189871	-96.167557	191.003559	309.845410	-169.361699	105.542856	327.582987	-149.406841	268.825430	110.959686	-145.835566	179.235876	166.727095	-72.297571	336.654129	1014.421430	-481.281808	421.941425	991.763742	-488.132944	438.376093	1044.694114	-479.789307	503.025359	963.230807	-480.490779	589.286899	888.738541	-464.331813	495.602734	839.506835	-482.493702	434.210527	778.914707	-472.857347	372.656120	721.098512	-453.844696	476.592825	740.701795	-449.723451	273.798482	623.871379	-426.846146	305.320955	620.113008	-347.844285	211.287688	620.420235	-380.257884	426.630183	444.386508	-387.885372	327.629217	486.386388	-453.748523	-231.703286	890.371662	-257.511011	-24.627368	80.457160	-458.235618	-24.582577	80.488460	-58.090083	
1001	5.0050	691.005006	1330.094019	-145.112759	684.732263	1298.541781	-515.699698	665.993497	1423.885382	-331.545608	663.722079	1257.554103	-324.044453	569.481833	1091.477057	1.405945	704.849991	896.955438	-64.669543	529.372492	1051.018385	-602.695641	678.677331	895.590988	-482.795457	277.471627	1221.388110	-455.807179	320.944028	1196.955018	-125.651992	293.098938	1168.550156	-428.947161	336.208422	1148.827663	-153.148327	178.855407	1240.904491	-207.515469	162.808507	1247.734738	-310.198949	244.975918	1076.513062	-94.179915	245.369505	1097.603286	-472.699792	282.388555	960.375063	-78.229790	311.799271	882.179799	-79.591607	337.461361	796.061089	-86.988239	365.204032	899.123558	-89.220797	334.433034	677.911635	-102.929703	270.911233	582.312868	-67.952025	239.599194	503.525325	-69.233357	199.401655	424.313591	-77.518475	286.457141	482.754034	-101.323966	145.207397	319.261327	-96.066984	189.951530	315.042970	-169.714252	104.571638	335.354348	-150.272527	258.396697	111.721689	-145.842555	171.527616	171.909477	-72.710264	335.176731	1014.082609	-480.491281	420.210507	990.407848	-486.931817	437.122853	1043.425535	-479.842880	500.828384	961.376675	-479.910103	588.136064	887.499860	-462.763901	495.203681	835.964132	-480.709232	434.413310	774.218632	-472.375058	373.341262	715.781597	-454.172589	477.081116	736.558688	-448.903682	274.574211	615.476618	-426.301676	306.980752	614.018297	-348.002317	212.708226	610.343108	-381.015805	435.978275	444.351809	-388.431558	334.993332	481.173751	-454.523565	-231.702750	890.423343	-257.761849	-24.593904	80.536146	-458.239726	-24.553795	80.566540	-58.117929	
1002	5.0100	691.062803	1328.804846	-147.002354	684.386527	1296.148476	-517.321575	666.272661	1422.749159	-333.780585	662.763115	1255.983807	-325.486286	569.422933	1091.272020	0.132751	704.783824	896.900664	-64.474178	528.057955	1049.046548	-603.491312	678.344875	895.406179	-483.056725	276.902348	1223.683998	-456.919706	320.128438	1199.690073	-126.462336	292.944446	1170.245448	-430.022474	335.831536	1151.016426	-153.897628	178.626693	1242.949103	-209.042606	162.878814	1249.696923	-311.729222	245.002445	1078.908313	-95.075490	245.084970	1099.933177	-473.243159	284.667199	962.012942	-79.890451	315.328953	884.365571	-81.701544	342.367189	798.734157	-89.099011	368.326223	902.059258	-91.037954	339.729593	680.941420	-104.577648	274.576993	586.233630	-69.301272	241.897396	508.084413	-70.420847	200.169478	429.526263	-78.569804	288.120129	486.438771	-102.804438	143.628640	325.672208	-96.221118	188.570732	320.319869	-170.444252	103.346428	343.101765	-151.213620	248.152512	113.470203	-145.735367	164.071572	177.656837	-73.280324	333.428237	1013.325050	-479.889854	418.319365	988.482543	-485.745013	435.856768	1041.287904	-479.708451	498.252768	958.382900	-478.920116	587.139525	884.608032	-460.730783	493.910983	831.048394	-478.968352	433.927777	768.169245	-471.456242	373.665231	708.676204	-453.500326	476.926993	731.096339	-447.671672	277.515207	607.810251	-427.775730	308.636258	606.729156	-348.093605	214.654336	598.182860	-382.334919	444.436666	443.513173	-388.758619	342.091940	475.245869	-455.497223	-231.675403	890.433226	-258.056111	-24.573767	80.505427	-458.293595	-24.530549	80.628671	-58.150155	
1003	5.0150	691.165642	1327.539024	-148.670918	684.274264	1293.920851	-519.106390	666.612158	1421.542887	-335.847369	661.700814	1254.243661	-326.716250	569.160789	1090.994364	-1.075265	704.690280	896.864529	-64.225270	526.823475	1047.134264	-604.403872	677.973488	895.221844	-483.377062	276.583967	1226.024377	-458.115707	318.912804	1202.335862	-127.569953	292.917023	1171.695011	-431.110702	335.472890	1153.110180	-154.625433	178.492446	1244.884633	-210.666843	162.973072	1251.662187	-313.294883	244.937006	1081.089056	-95.948796	244.806945	1102.090378	-473.820662	287.024035	963.496367	-81.618718	319.031375	886.402392	-83.858781	347.408056	801.403871	-90.819964	371.496008	904.879402	-93.080570	345.722594	683.925155	-106.471592	278.772990	590.082862	-70.765270	244.536093	512.607753	-71.820371	201.220636	434.917361	-79.826589	290.033121	490.219319	-104.890030	141.822262	332.571380	-96.668059	186.799056	325.741132	-171.447293	101.932200	351.067712	-152.388443	238.155884	116.059203	-145.563469	156.754541	183.896564	-73.734216	331.713159	1012.240447	-479.207207	416.282857	986.062746	-484.639643	434.538912	1038.352345	-479.760782	495.382743	954.344754	-477.821350	583.187885	879.501647	-460.488129	491.872441	825.019746	-477.354619	433.029340	761.169222	-470.449351	373.738725	700.530263	-452.913366	476.536216	724.693648	-446.475186	245.172897	547.560223	-380.407571	310.354985	598.357097	-347.932753	216.863317	586.484696	-383.201779	453.066428	441.799672	-389.799876	349.042505	468.493317	-456.249767	-231.633849	890.451467	-258.338101	-24.566230	80.481937	-458.353421	-24.502638	80.674068	-58.191425	
